<mxfile host="app.diagrams.net" modified="2023-07-13T08:00:59.982Z" agent="Mozilla/5.0 (Macintosh; Intel Mac OS X 10_15_7) AppleWebKit/537.36 (KHTML, like Gecko) Chrome/112.0.0.0 Safari/537.36" version="21.6.1" etag="j_nUtA9DXilLGtB62q8P" type="github">
  <diagram name="第 1 页" id="xCcg0Tw5DFCpbqDy5WKF">
    <mxGraphModel>
      <root>
        <mxCell id="0" />
        <mxCell id="1" parent="0" />
      </root>
    </mxGraphModel>
  </diagram>
</mxfile>
